<?xml version="1.0" encoding="utf-8" standalone="no"?>
<!DOCTYPE svg PUBLIC "-//W3C//DTD SVG 1.1//EN" "http://www.w3.org/Graphics/SVG/1.1/DTD/svg11.dtd">
<svg width="420mm" height="594mm" viewBox="0 0 420 594" xmlns="http://www.w3.org/2000/svg" xmlns:xlink="http://www.w3.org/1999/xlink" version="1.1" style="stroke:black; fill:none; stroke-width:0.5pt; stroke-linejoin:round; text-anchor:middle" font-family="Helvetica, Arial, FreeSans, Sans, sans, sans-serif">

<g>

<rect x="35.0" y="47.0" width="50.0" height="50.0" fill="black" stroke="none" />

<rect x="35.0" y="147.0" width="50.0" height="50.0" fill="black" stroke="none" />

<rect x="35.0" y="247.0" width="50.0" height="50.0" fill="black" stroke="none" />

<rect x="35.0" y="347.0" width="50.0" height="50.0" fill="black" stroke="none" />

<rect x="35.0" y="447.0" width="50.0" height="50.0" fill="black" stroke="none" />

<rect x="85.0" y="97.0" width="50.0" height="50.0" fill="black" stroke="none" />

<rect x="85.0" y="197.0" width="50.0" height="50.0" fill="black" stroke="none" />

<rect x="85.0" y="297.0" width="50.0" height="50.0" fill="black" stroke="none" />

<rect x="85.0" y="397.0" width="50.0" height="50.0" fill="black" stroke="none" />

<rect x="85.0" y="497.0" width="50.0" height="50.0" fill="black" stroke="none" />

<rect x="135.0" y="47.0" width="50.0" height="50.0" fill="black" stroke="none" />

<rect x="135.0" y="147.0" width="50.0" height="50.0" fill="black" stroke="none" />

<rect x="135.0" y="247.0" width="50.0" height="50.0" fill="black" stroke="none" />

<rect x="135.0" y="347.0" width="50.0" height="50.0" fill="black" stroke="none" />

<rect x="135.0" y="447.0" width="50.0" height="50.0" fill="black" stroke="none" />

<rect x="185.0" y="97.0" width="50.0" height="50.0" fill="black" stroke="none" />

<rect x="185.0" y="197.0" width="50.0" height="50.0" fill="black" stroke="none" />

<rect x="185.0" y="297.0" width="50.0" height="50.0" fill="black" stroke="none" />

<rect x="185.0" y="397.0" width="50.0" height="50.0" fill="black" stroke="none" />

<rect x="185.0" y="497.0" width="50.0" height="50.0" fill="black" stroke="none" />

<rect x="235.0" y="47.0" width="50.0" height="50.0" fill="black" stroke="none" />

<rect x="235.0" y="147.0" width="50.0" height="50.0" fill="black" stroke="none" />

<rect x="235.0" y="247.0" width="50.0" height="50.0" fill="black" stroke="none" />

<rect x="235.0" y="347.0" width="50.0" height="50.0" fill="black" stroke="none" />

<rect x="235.0" y="447.0" width="50.0" height="50.0" fill="black" stroke="none" />

<rect x="285.0" y="97.0" width="50.0" height="50.0" fill="black" stroke="none" />

<rect x="285.0" y="197.0" width="50.0" height="50.0" fill="black" stroke="none" />

<rect x="285.0" y="297.0" width="50.0" height="50.0" fill="black" stroke="none" />

<rect x="285.0" y="397.0" width="50.0" height="50.0" fill="black" stroke="none" />

<rect x="285.0" y="497.0" width="50.0" height="50.0" fill="black" stroke="none" />

<rect x="335.0" y="47.0" width="50.0" height="50.0" fill="black" stroke="none" />

<rect x="335.0" y="147.0" width="50.0" height="50.0" fill="black" stroke="none" />

<rect x="335.0" y="247.0" width="50.0" height="50.0" fill="black" stroke="none" />

<rect x="335.0" y="347.0" width="50.0" height="50.0" fill="black" stroke="none" />

<rect x="335.0" y="447.0" width="50.0" height="50.0" fill="black" stroke="none" />

</g>

</svg>

